<svg width="138" height="147" viewBox="0 0 138 147" fill="none" xmlns="http://www.w3.org/2000/svg">
<path d="M62.2397 1L53.4911 10.5604L60.649 17.7308V29.6813L58.2631 32.0714V33.6648H53.4911L51.9005 32.0714L47.1286 36.0549L51.9005 39.2418L53.4911 37.6484H56.6724V42.4286L62.2397 46.4121H68.6022V37.6484H70.9882L74.1695 39.2418L78.1461 37.6484L74.1695 33.6648L70.9882 35.2582L68.6022 33.6648L66.2163 32.0714V17.7308L72.5789 10.5604L64.6256 1H62.2397Z" fill="white"/>
<path d="M40.766 33.6648L35.1987 39.2418L34.4034 45.6154L28.8362 51.1923V40.8352C3.38592 61.5494 4.97658 116.522 51.9005 130.863V138.83C46.0933 139.156 43.5136 137.82 39.1754 134.846C31.6983 131.697 27.7775 131.987 20.883 133.253L17.7017 128.473C24.7003 129.513 27.0413 129.788 27.2456 126.082C17.5888 116.647 13.8868 110.99 9.74854 98.9945C8.40297 93.0329 6.08519 90.4329 1 86.2473V79.8736C3.75087 84.4579 5.1907 85.9808 7.36254 84.6538C7.15657 76.4628 7.39863 71.9143 8.95319 63.9396C11.7247 59.1413 11.8629 54.6368 11.3392 45.6154L13.7251 42.4286C13.8827 47.5915 14.5977 50.3193 17.7017 47.2088L26.4503 37.6484H19.2924L28.8362 32.0714H40.766V33.6648Z" fill="white"/>
<path d="M74.1695 130.863L74.1696 139.626H87.6901C92.6059 137.907 97.1159 135.704 101.211 133.103C105.96 129.626 106.492 131.904 104.392 142.016C106.216 139.964 107.265 138.81 111.55 136.44C109.7 131.172 110.139 128.662 111.944 124.489C119.787 116.612 125.2 106.93 128.048 96.6044C131.274 92.8342 132.783 95.7855 135.409 102.181L137 96.6044C132.18 91.302 131.229 87.6781 130.376 80.9011C130.611 71.587 128.843 62.2232 124.984 53.5824C124.433 52.6291 124.06 51.8336 123.844 51.1737C122.336 46.5618 128.51 48.5721 135.409 49.5989L129.842 43.2253C125.801 43.7633 119.345 41.3848 115.74 38.9546C114.896 37.9668 114.014 36.9997 113.095 36.0549C109.661 32.5245 105.703 29.3069 101.211 26.4945L100.415 38.4451C136.205 66.3297 115.526 128.473 74.1695 130.863Z" fill="white"/>
<path d="M56.6724 124.489L68.6022 117.319V134.846L66.2163 141.22L63.0351 146L59.8538 141.22L56.6724 137.236V124.489Z" fill="white"/>
<path d="M47.1287 98.9945C44.7345 96.6699 44.8836 95.5901 47.1287 93.9608C44.6716 94.7153 42.5174 95.2756 40.5714 95.6644C42.3459 98.0515 43.7397 98.8386 47.1287 98.9945Z" fill="white"/>
<path d="M54.2866 95.8077C51.7636 94.427 51.424 93.5679 53.4912 91.8242C51.1552 92.6623 49.0494 93.3709 47.1287 93.9608C49.3521 96.0552 51.0309 96.1917 54.2866 95.8077Z" fill="white"/>
<path d="M57.4678 92.6209C56.7757 91.6401 56.7421 90.9551 57.4678 89.4341L58.0379 88.4996C56.6594 89.4459 55.1724 90.5361 53.4912 91.8242L57.4678 92.6209Z" fill="white"/>
<path d="M38.831 102.181C37.033 99.2151 37.4658 97.7737 40.4824 95.6822C36.998 96.3712 34.1812 96.508 31.4844 96.2243C33.8919 99.1279 35.3536 100.616 38.831 102.181Z" fill="white"/>
<path d="M31.4844 96.2243C29.547 96.0205 27.6716 95.5998 25.655 95.011C27.2036 97.9445 28.1532 99.4744 30.4269 101.385C30.0459 99.1735 30.1731 98.0179 31.4844 96.2243Z" fill="white"/>
<path fill-rule="evenodd" clip-rule="evenodd" d="M73.3743 46.4121C68.6022 52.7857 58.2631 52.7857 56.6724 46.4121C54.5809 52.9445 53.257 56.4878 50.3099 62.3462C46.1561 67.9335 43.4761 67.1816 38.3801 62.3462C39.0635 67.2254 38.4045 70.1827 35.1988 75.8901C33.1118 79.6459 30.5793 82.8972 26.864 86.2473C24.2895 90.3076 24.2145 92.687 25.655 95.011C27.6716 95.5998 29.547 96.0205 31.4844 96.2243C34.1812 96.508 36.998 96.3712 40.4824 95.6822L40.5714 95.6644C42.5174 95.2756 44.6716 94.7153 47.1287 93.9608C49.0494 93.3709 51.1552 92.6623 53.4912 91.8242C55.1724 90.5361 56.6594 89.4459 58.0379 88.4996C62.2847 85.5842 65.5017 84.0335 70.193 82.2637C79.0965 79.2569 80.1686 79.7462 73.3743 85.4505L44.7427 110.945C41.6607 121.492 43.0318 124.729 54.2866 122.896L73.3743 110.148C84.9138 106.943 89.7883 101.239 94.848 92.5323C98.3056 86.5667 102.104 80.7098 106.778 77.4835C101.046 75.6381 99.9921 74.4017 101.211 71.9066C107.386 65.8397 107.836 62.819 107.573 57.5659C105.505 61.095 103.931 62.6573 100.415 64.7363C98.7921 65.7744 98.2876 65.6844 98.8246 63.1429L102.801 58.3626C105.813 53.1778 105.187 50.3956 102.801 46.4121C102.233 51.1616 98.5886 58.6254 97.2339 58.3626C97.2339 58.3626 95.2824 58.3657 95.6433 57.5659C96.0042 56.7662 96.7561 47.1114 96.4386 46.4121C95.3483 49.726 91.0722 55.5739 89.2807 55.1758C85.529 56.161 85.059 54.6678 86.0994 51.989C92.6669 46.1632 94.0796 43.0466 96.4386 37.6484C97.407 32.288 97.7465 30.31 96.4386 27.2912C92.0782 37.8142 88.4312 42.0579 81.3275 48.8022C78.0454 51.1354 77.7694 50.685 78.9415 48.0055C85.0167 40.7213 88.909 36.5139 90.076 30.478C90.5135 24.444 88.7704 21.6431 85.3041 20.1209C87.211 24.8949 87.5723 27.1103 86.0994 29.6813C81.5431 38.2506 78.694 41.6039 73.3743 46.4121ZM38.831 84.6538C39.0071 87.8824 37.5602 88.9505 32.0175 89.4341C32.5598 85.4151 33.5059 83.8142 38.831 84.6538ZM46.3333 79.8736C56.3136 87.2149 71.3421 70.4448 59.0585 63.1429C49.6481 68.2129 46.0783 71.6178 46.3333 79.8736ZM86.8947 72.7033C80.9636 73.3318 78.3667 70.5444 76.3838 65.533C77.5862 64.9818 76.6637 64.0333 74.9649 60.7527C72.8162 60.3559 72.8229 57.8427 73.3743 55.9725C78.338 57.0494 80.6185 59.2 79.5119 62.8507C81.742 63.6684 83.0376 64.7108 83.4771 64.4322C86.2859 69.0408 88.0123 71.338 86.8947 72.7033ZM93.2573 65.533C88.145 66.8407 86.1087 65.1221 82.9181 60.7527C83.6042 60.8626 84.2706 60.9654 84.913 61.0646C90.8933 61.9877 94.802 62.591 93.2573 65.533ZM60.6491 103.775C47.9645 108.791 47.2815 111.572 48.7193 116.522C50.9805 117.69 53.1564 115.886 58.2632 109.352C62.2879 109.152 64.6538 108.16 69.3977 102.181C73.9335 97.7234 76.0337 94.6489 78.1462 87.044C74.3303 88.7087 72.1316 91.3486 71.184 95.6822C68.2996 98.6891 65.1765 101.108 60.6491 103.775ZM81.3275 97.4011C82.7114 91.1529 84.1561 88.2172 92.462 87.8407C90.5276 93.313 89.0275 96.0817 81.3275 97.4011Z" fill="white"/>
<path d="M124.984 53.5824C128.843 62.2232 130.611 71.587 130.376 80.9011C131.229 87.6781 132.18 91.302 137 96.6044L135.409 102.181C132.783 95.7855 131.274 92.8342 128.048 96.6044C125.2 106.93 119.787 116.612 111.944 124.489C110.139 128.662 109.7 131.172 111.55 136.44C107.265 138.81 106.216 139.964 104.392 142.016C106.492 131.904 105.96 129.626 101.211 133.103C97.1159 135.704 92.6059 137.907 87.6901 139.626H74.1696L74.1695 130.863C115.526 128.473 136.205 66.3297 100.415 38.4451L101.211 26.4945C105.703 29.3069 109.661 32.5245 113.095 36.0549C114.014 36.9997 114.896 37.9668 115.74 38.9546C119.345 41.3848 125.801 43.7633 129.842 43.2253L135.409 49.5989C128.51 48.5721 122.336 46.5618 123.844 51.1737M124.984 53.5824C124.622 52.773 124.242 51.9699 123.844 51.1737M124.984 53.5824C124.433 52.6291 124.06 51.8336 123.844 51.1737M53.4912 91.8242L57.4678 92.6209C56.7757 91.6401 56.7421 90.9551 57.4678 89.4341L58.0379 88.4996M53.4912 91.8242C51.424 93.5679 51.7636 94.427 54.2866 95.8077C51.0309 96.1917 49.3521 96.0552 47.1287 93.9608M53.4912 91.8242C51.1552 92.6623 49.0494 93.3709 47.1287 93.9608M53.4912 91.8242C55.1724 90.5361 56.6594 89.4459 58.0379 88.4996M25.655 95.011C24.2145 92.687 24.2895 90.3076 26.864 86.2473C30.5793 82.8972 33.1118 79.6459 35.1988 75.8901C38.4045 70.1827 39.0635 67.2254 38.3801 62.3462C43.4761 67.1816 46.1561 67.9335 50.3099 62.3462C53.257 56.4878 54.5809 52.9445 56.6724 46.4121C58.2631 52.7857 68.6022 52.7857 73.3743 46.4121C78.694 41.6039 81.5431 38.2506 86.0994 29.6813C87.5723 27.1103 87.211 24.8949 85.3041 20.1209C88.7704 21.6431 90.5135 24.444 90.076 30.478C88.909 36.5139 85.0167 40.7213 78.9415 48.0055C77.7694 50.685 78.0454 51.1354 81.3275 48.8022C88.4312 42.0579 92.0782 37.8142 96.4386 27.2912C97.7465 30.31 97.407 32.288 96.4386 37.6484C94.0796 43.0466 92.6669 46.1632 86.0994 51.989C85.059 54.6678 85.529 56.161 89.2807 55.1758C91.0722 55.5739 95.3483 49.726 96.4386 46.4121C96.7561 47.1114 96.0042 56.7662 95.6433 57.5659C95.2824 58.3657 97.2339 58.3626 97.2339 58.3626C98.5886 58.6254 102.233 51.1616 102.801 46.4121C105.187 50.3956 105.813 53.1778 102.801 58.3626L98.8246 63.1429C98.2876 65.6844 98.7921 65.7744 100.415 64.7363C103.931 62.6573 105.505 61.095 107.573 57.5659C107.836 62.819 107.386 65.8397 101.211 71.9066C99.9921 74.4017 101.046 75.6381 106.778 77.4835C102.104 80.7098 98.3056 86.5667 94.848 92.5323C89.7883 101.239 84.9138 106.943 73.3743 110.148L54.2866 122.896C43.0318 124.729 41.6607 121.492 44.7427 110.945L73.3743 85.4505C80.1686 79.7462 79.0965 79.2569 70.193 82.2637C65.5017 84.0335 62.2847 85.5842 58.0379 88.4996M25.655 95.011C27.6716 95.5998 29.547 96.0205 31.4844 96.2243M25.655 95.011C27.2036 97.9445 28.1532 99.4744 30.4269 101.385C30.0459 99.1735 30.1731 98.0179 31.4844 96.2243M47.1287 93.9608C44.8836 95.5901 44.7345 96.6699 47.1287 98.9945C43.7397 98.8386 42.3459 98.0515 40.5714 95.6644M47.1287 93.9608C44.6716 94.7153 42.5174 95.2756 40.5714 95.6644M40.5714 95.6644C40.5417 95.6704 40.512 95.6763 40.4824 95.6822M40.5714 95.6644L40.4824 95.6822M40.4824 95.6822C37.4658 97.7737 37.033 99.2151 38.831 102.181C35.3536 100.616 33.8919 99.1279 31.4844 96.2243M40.4824 95.6822C36.998 96.3712 34.1812 96.508 31.4844 96.2243M62.2397 1L53.4911 10.5604L60.649 17.7308V29.6813L58.2631 32.0714V33.6648H53.4911L51.9005 32.0714L47.1286 36.0549L51.9005 39.2418L53.4911 37.6484H56.6724V42.4286L62.2397 46.4121H68.6022V37.6484H70.9882L74.1695 39.2418L78.1461 37.6484L74.1695 33.6648L70.9882 35.2582L68.6022 33.6648L66.2163 32.0714V17.7308L72.5789 10.5604L64.6256 1H62.2397ZM40.766 33.6648L35.1987 39.2418L34.4034 45.6154L28.8362 51.1923V40.8352C3.38592 61.5494 4.97658 116.522 51.9005 130.863V138.83C46.0933 139.156 43.5136 137.82 39.1754 134.846C31.6983 131.697 27.7775 131.987 20.883 133.253L17.7017 128.473C24.7003 129.513 27.0413 129.788 27.2456 126.082C17.5888 116.647 13.8868 110.99 9.74854 98.9945C8.40297 93.0329 6.08519 90.4329 1 86.2473V79.8736C3.75087 84.4579 5.1907 85.9808 7.36254 84.6538C7.15657 76.4628 7.39863 71.9143 8.95319 63.9396C11.7247 59.1413 11.8629 54.6368 11.3392 45.6154L13.7251 42.4286C13.8827 47.5915 14.5977 50.3193 17.7017 47.2088L26.4503 37.6484H19.2924L28.8362 32.0714H40.766V33.6648ZM56.6724 124.489L68.6022 117.319V134.846L66.2163 141.22L63.0351 146L59.8538 141.22L56.6724 137.236V124.489ZM38.831 84.6538C39.0071 87.8824 37.5602 88.9505 32.0175 89.4341C32.5598 85.4151 33.5059 83.8142 38.831 84.6538ZM46.3333 79.8736C56.3136 87.2149 71.3421 70.4448 59.0585 63.1429C49.6481 68.2129 46.0783 71.6178 46.3333 79.8736ZM73.3743 55.9725C72.8229 57.8427 72.8162 60.3559 74.9649 60.7527C76.6637 64.0333 77.5862 64.9818 76.3838 65.533C78.3667 70.5444 80.9636 73.3318 86.8947 72.7033C88.0123 71.338 86.2859 69.0408 83.4771 64.4322C83.0376 64.7108 81.742 63.6684 79.5119 62.8507C80.6185 59.2 78.338 57.0494 73.3743 55.9725ZM82.9181 60.7527C86.1087 65.1221 88.145 66.8407 93.2573 65.533C94.802 62.591 90.8933 61.9877 84.913 61.0646C84.2706 60.9654 83.6042 60.8626 82.9181 60.7527ZM48.7193 116.522C47.2815 111.572 47.9645 108.791 60.6491 103.775C65.1765 101.108 68.2996 98.6891 71.184 95.6822C72.1316 91.3486 74.3303 88.7087 78.1462 87.044C76.0337 94.6489 73.9335 97.7234 69.3977 102.181C64.6538 108.16 62.2879 109.152 58.2632 109.352C53.1564 115.886 50.9805 117.69 48.7193 116.522ZM81.3275 97.4011C82.7114 91.1529 84.1561 88.2172 92.462 87.8407C90.5276 93.313 89.0275 96.0817 81.3275 97.4011Z" stroke="black"/>
</svg>
