<svg width="274" height="291" viewBox="0 0 274 291" fill="none" xmlns="http://www.w3.org/2000/svg">
<path d="M123.269 1L105.802 20.0549L120.093 34.3462V58.1648L115.329 62.9286V66.1044H105.802L102.626 62.9286L93.0987 70.8681L102.626 77.2198L105.802 74.044H112.154V83.5714L123.269 91.511H135.972V74.044H140.736L147.088 77.2198L155.027 74.044L147.088 66.1044L140.736 69.2802L135.972 66.1044L131.209 62.9286V34.3462L143.912 20.0549L128.033 1H123.269Z" fill="black"/>
<path d="M80.3954 66.1044L69.28 77.2198L67.6921 89.9231L56.5767 101.038V80.3956C5.76365 121.681 8.93951 231.247 102.626 259.83V275.709C91.0317 276.36 85.8813 273.697 77.2198 267.769C62.2912 261.492 54.4631 262.07 40.6978 264.593L34.3461 255.066C48.3191 257.14 52.9932 257.688 53.4011 250.302C34.1207 231.497 26.7294 220.222 18.467 196.313C15.7805 184.431 11.1529 179.249 1 170.907V158.203C6.49228 167.34 9.367 170.376 13.7032 167.731C13.292 151.405 13.7753 142.339 16.8791 126.445C22.4125 116.882 22.6885 107.904 21.6428 89.9231L26.4066 83.5714C26.7211 93.8616 28.1486 99.2985 34.3461 93.0989L51.8131 74.044H37.5219L56.5767 62.9286H80.3954V66.1044Z" fill="black"/>
<path d="M147.088 259.83L147.088 277.297H174.082C183.897 273.869 192.902 269.479 201.077 264.295C210.559 257.364 211.621 261.906 207.429 282.06C211.071 277.969 213.165 275.669 221.72 270.945C218.027 260.447 218.904 255.443 222.506 247.126C238.167 231.427 248.973 212.128 254.659 191.549C261.1 184.035 264.114 189.917 269.357 202.665L272.533 191.549C262.91 180.981 261.011 173.758 259.307 160.251C259.776 141.687 256.247 123.024 248.542 105.802C247.442 103.902 246.697 102.317 246.266 101.001C243.255 91.8093 255.582 95.816 269.357 97.8626L258.242 85.1593C250.174 86.2317 237.283 81.4912 230.087 76.6474C228.401 74.6787 226.641 72.7511 224.806 70.8681C217.948 63.8316 210.046 57.4186 201.077 51.8132L199.489 75.6319C270.945 131.209 229.659 255.066 147.088 259.83Z" fill="black"/>
<path d="M112.154 247.126L135.972 232.835V267.769L131.209 280.473L124.857 290L118.505 280.473L112.154 272.533V247.126Z" fill="black"/>
<path d="M93.0989 196.313C88.3189 191.68 88.6165 189.528 93.0989 186.28C88.1933 187.784 83.8922 188.901 80.007 189.676C83.5498 194.434 86.3327 196.003 93.0989 196.313Z" fill="black"/>
<path d="M107.39 189.962C102.353 187.21 101.675 185.497 105.802 182.022C101.138 183.693 96.9339 185.105 93.0989 186.28C97.5381 190.455 100.89 190.727 107.39 189.962Z" fill="black"/>
<path d="M113.742 183.61C112.36 181.655 112.293 180.29 113.742 177.258L114.88 175.396C112.128 177.282 109.159 179.455 105.802 182.022L113.742 183.61Z" fill="black"/>
<path d="M76.5322 202.665C72.9424 196.753 73.8063 193.88 79.8291 189.711C72.8723 191.085 67.2484 191.357 61.8641 190.792C66.6709 196.579 69.5892 199.545 76.5322 202.665Z" fill="black"/>
<path d="M61.8641 190.792C57.996 190.386 54.2515 189.547 50.2253 188.374C53.3173 194.22 55.2131 197.27 59.7527 201.077C58.992 196.67 59.246 194.367 61.8641 190.792Z" fill="black"/>
<path fill-rule="evenodd" clip-rule="evenodd" d="M145.5 91.511C135.972 104.214 115.329 104.214 112.154 91.511C107.978 104.531 105.335 111.593 99.4505 123.269C91.1572 134.405 85.8064 132.907 75.6319 123.269C76.9964 132.994 75.6806 138.888 69.2802 150.264C65.1133 157.749 60.057 164.23 52.6392 170.907C47.499 178.999 47.3493 183.742 50.2253 188.374C54.2515 189.547 57.996 190.386 61.8641 190.792C67.2484 191.357 72.8723 191.085 79.8291 189.711L80.007 189.676C83.8922 188.901 88.1933 187.784 93.0989 186.28C96.9339 185.105 101.138 183.693 105.802 182.022C109.159 179.455 112.128 177.282 114.88 175.396C123.359 169.585 129.782 166.494 139.148 162.967C156.925 156.974 159.065 157.949 145.5 169.319L88.3352 220.132C82.1817 241.154 84.9193 247.606 107.39 243.951L145.5 218.544C168.54 212.156 178.272 200.787 188.374 183.433C195.277 171.543 202.862 159.87 212.192 153.44C200.749 149.762 198.644 147.297 201.077 142.324C213.408 130.232 214.306 124.212 213.78 113.742C209.652 120.776 206.508 123.889 199.489 128.033C196.248 130.102 195.241 129.923 196.313 124.857L204.253 115.33C210.266 104.996 209.016 99.4505 204.253 91.511C203.118 100.977 195.842 115.853 193.137 115.33C193.137 115.33 189.241 115.336 189.962 113.742C190.682 112.148 192.183 92.9049 191.549 91.511C189.373 98.1159 180.835 109.771 177.258 108.978C169.768 110.942 168.829 107.965 170.907 102.626C184.019 91.0149 186.84 84.8033 191.549 74.044C193.483 63.3602 194.161 59.4179 191.549 53.4011C182.844 74.3745 175.562 82.8327 161.379 96.2747C154.826 100.925 154.275 100.027 156.615 94.6868C168.745 80.1687 176.516 71.783 178.846 59.7527C179.72 47.7263 176.239 42.1439 169.319 39.1099C173.126 48.625 173.847 53.0405 170.907 58.1648C161.81 75.2444 156.121 81.9278 145.5 91.511ZM76.5322 167.731C76.8837 174.166 73.9949 176.294 62.9286 177.258C64.0113 169.248 65.9002 166.057 76.5322 167.731ZM91.511 158.203C111.437 172.835 141.443 139.411 116.918 124.857C98.1292 134.962 91.0017 141.749 91.511 158.203ZM172.495 143.912C160.653 145.165 155.468 139.609 151.509 129.621C153.909 128.522 152.068 126.632 148.676 120.093C144.386 119.302 144.399 114.293 145.5 110.566C155.41 112.712 159.964 116.999 157.754 124.275C162.207 125.905 164.794 127.982 165.671 127.427C171.279 136.612 174.726 141.191 172.495 143.912ZM185.198 129.621C174.991 132.227 170.925 128.802 164.555 120.093C165.925 120.312 167.255 120.517 168.538 120.715C180.478 122.555 188.282 123.757 185.198 129.621ZM120.093 205.841C94.7676 215.838 93.4041 221.382 96.2747 231.247C100.789 233.574 105.134 229.98 115.33 216.956C123.365 216.557 128.089 214.582 137.56 202.665C146.617 193.78 150.81 187.652 155.027 172.495C147.409 175.813 143.019 181.074 141.127 189.711C135.368 195.704 129.133 200.525 120.093 205.841ZM161.379 193.137C164.142 180.684 167.027 174.833 183.61 174.082C179.748 184.989 176.753 190.508 161.379 193.137Z" fill="black"/>
<path d="M248.542 105.802C256.247 123.024 259.776 141.687 259.307 160.251C261.011 173.758 262.91 180.981 272.533 191.549L269.357 202.665C264.114 189.917 261.1 184.035 254.659 191.549C248.973 212.128 238.167 231.427 222.506 247.126C218.904 255.443 218.027 260.447 221.72 270.945C213.165 275.669 211.071 277.969 207.429 282.06C211.621 261.906 210.559 257.364 201.077 264.295C192.902 269.479 183.897 273.869 174.082 277.297H147.088L147.088 259.83C229.659 255.066 270.945 131.209 199.489 75.6319L201.077 51.8132C210.046 57.4186 217.948 63.8316 224.806 70.8681C226.641 72.7511 228.401 74.6787 230.087 76.6474C237.283 81.4912 250.174 86.2317 258.242 85.1593L269.357 97.8626C255.582 95.816 243.255 91.8093 246.266 101.001M248.542 105.802C247.82 104.189 247.061 102.588 246.266 101.001M248.542 105.802C247.442 103.902 246.697 102.317 246.266 101.001M105.802 182.022L113.742 183.61C112.36 181.655 112.293 180.29 113.742 177.258L114.88 175.396M105.802 182.022C101.675 185.497 102.353 187.21 107.39 189.962C100.89 190.727 97.5381 190.455 93.0989 186.28M105.802 182.022C101.138 183.693 96.9339 185.105 93.0989 186.28M105.802 182.022C109.159 179.455 112.128 177.282 114.88 175.396M50.2253 188.374C47.3493 183.742 47.499 178.999 52.6392 170.907C60.057 164.23 65.1133 157.749 69.2802 150.264C75.6806 138.888 76.9964 132.994 75.6319 123.269C85.8064 132.907 91.1572 134.405 99.4505 123.269C105.335 111.593 107.978 104.531 112.154 91.511C115.329 104.214 135.972 104.214 145.5 91.511C156.121 81.9278 161.81 75.2444 170.907 58.1648C173.847 53.0405 173.126 48.625 169.319 39.1099C176.239 42.1439 179.72 47.7263 178.846 59.7527C176.516 71.783 168.745 80.1687 156.615 94.6868C154.275 100.027 154.826 100.925 161.379 96.2747C175.562 82.8327 182.844 74.3745 191.549 53.4011C194.161 59.4179 193.483 63.3602 191.549 74.044C186.84 84.8033 184.019 91.0149 170.907 102.626C168.829 107.965 169.768 110.942 177.258 108.978C180.835 109.771 189.373 98.1159 191.549 91.511C192.183 92.9049 190.682 112.148 189.962 113.742C189.241 115.336 193.137 115.33 193.137 115.33C195.842 115.853 203.118 100.977 204.253 91.511C209.016 99.4505 210.266 104.996 204.253 115.33L196.313 124.857C195.241 129.923 196.248 130.102 199.489 128.033C206.508 123.889 209.652 120.776 213.78 113.742C214.306 124.212 213.408 130.232 201.077 142.324C198.644 147.297 200.749 149.762 212.192 153.44C202.862 159.87 195.277 171.543 188.374 183.433C178.272 200.787 168.54 212.156 145.5 218.544L107.39 243.951C84.9193 247.606 82.1817 241.154 88.3352 220.132L145.5 169.319C159.065 157.949 156.925 156.974 139.148 162.967C129.782 166.494 123.359 169.585 114.88 175.396M50.2253 188.374C54.2515 189.547 57.996 190.386 61.8641 190.792M50.2253 188.374C53.3173 194.22 55.2131 197.27 59.7527 201.077C58.992 196.67 59.246 194.367 61.8641 190.792M93.0989 186.28C88.6165 189.528 88.3189 191.68 93.0989 196.313C86.3327 196.003 83.5498 194.434 80.007 189.676M93.0989 186.28C88.1933 187.784 83.8922 188.901 80.007 189.676M80.007 189.676C79.9476 189.688 79.8883 189.7 79.8291 189.711M80.007 189.676L79.8291 189.711M79.8291 189.711C73.8063 193.88 72.9424 196.753 76.5322 202.665C69.5892 199.545 66.6709 196.579 61.8641 190.792M79.8291 189.711C72.8723 191.085 67.2484 191.357 61.8641 190.792M123.269 1L105.802 20.0549L120.093 34.3462V58.1648L115.329 62.9286V66.1044H105.802L102.626 62.9286L93.0987 70.8681L102.626 77.2198L105.802 74.044H112.154V83.5714L123.269 91.511H135.972V74.044H140.736L147.088 77.2198L155.027 74.044L147.088 66.1044L140.736 69.2802L135.972 66.1044L131.209 62.9286V34.3462L143.912 20.0549L128.033 1H123.269ZM80.3954 66.1044L69.28 77.2198L67.6921 89.9231L56.5767 101.038V80.3956C5.76365 121.681 8.93951 231.247 102.626 259.83V275.709C91.0317 276.36 85.8813 273.697 77.2198 267.769C62.2912 261.492 54.4631 262.07 40.6978 264.593L34.3461 255.066C48.3191 257.14 52.9932 257.688 53.4011 250.302C34.1207 231.497 26.7294 220.222 18.467 196.313C15.7805 184.431 11.1529 179.249 1 170.907V158.203C6.49228 167.34 9.367 170.376 13.7032 167.731C13.292 151.405 13.7753 142.339 16.8791 126.445C22.4125 116.882 22.6885 107.904 21.6428 89.9231L26.4066 83.5714C26.7211 93.8616 28.1486 99.2985 34.3461 93.0989L51.8131 74.044H37.5219L56.5767 62.9286H80.3954V66.1044ZM112.154 247.126L135.972 232.835V267.769L131.209 280.473L124.857 290L118.505 280.473L112.154 272.533V247.126ZM76.5322 167.731C76.8837 174.166 73.9949 176.294 62.9286 177.258C64.0113 169.248 65.9002 166.057 76.5322 167.731ZM91.511 158.203C111.437 172.835 141.443 139.411 116.918 124.857C98.1292 134.962 91.0017 141.749 91.511 158.203ZM145.5 110.566C144.399 114.293 144.386 119.302 148.676 120.093C152.068 126.632 153.909 128.522 151.509 129.621C155.468 139.609 160.653 145.165 172.495 143.912C174.726 141.191 171.279 136.612 165.671 127.427C164.794 127.982 162.207 125.905 157.754 124.275C159.964 116.999 155.41 112.712 145.5 110.566ZM164.555 120.093C170.925 128.802 174.991 132.227 185.198 129.621C188.282 123.757 180.478 122.555 168.538 120.715C167.255 120.517 165.925 120.312 164.555 120.093ZM96.2747 231.247C93.4041 221.382 94.7676 215.838 120.093 205.841C129.133 200.525 135.368 195.704 141.127 189.711C143.019 181.074 147.409 175.813 155.027 172.495C150.81 187.652 146.617 193.78 137.56 202.665C128.089 214.582 123.365 216.557 115.33 216.956C105.134 229.98 100.789 233.574 96.2747 231.247ZM161.379 193.137C164.142 180.684 167.027 174.833 183.61 174.082C179.748 184.989 176.753 190.508 161.379 193.137Z" stroke="black"/>
</svg>
